<?xml version="1.0" encoding="utf-8"?>
<!-- Generator: Adobe Illustrator 16.0.0, SVG Export Plug-In . SVG Version: 6.00 Build 0)  -->
<!DOCTYPE svg PUBLIC "-//W3C//DTD SVG 1.1//EN" "http://www.w3.org/Graphics/SVG/1.1/DTD/svg11.dtd">
<svg version="1.1" id="레이어_1" xmlns="http://www.w3.org/2000/svg" xmlns:xlink="http://www.w3.org/1999/xlink" x="0px"
	 y="0px" width="200px" height="200px" viewBox="0 0 200 200" enable-background="new 0 0 200 200" xml:space="preserve">
<g>
	<path fill="#ECCDCD" d="M64.392,80.986c-0.164,0.268-0.288,0.553-0.282,0.85c0.004,0.159-0.055,0.244,0.18,0.277
		c0.212,0.029,0.562-0.268,0.714-0.407c0.19-0.172,0.126-0.111,0.351-0.063c0.336,0.072,1.629-0.294,1.853-0.417
		c0.17-0.092,0.216-0.314,0.345-0.441c0.177-0.168,0.984-1.123,1.245-1.427c0.525-0.618,1.096-1.202,1.696-1.751
		c1.024-0.935,2.159-1.819,3.43-2.401c0.643-0.32,2.29-1.009,2.335,0.276c0.092,1.007-1.282,2.382-2.062,2.978
		c-0.861,0.656-1.648,1.228-2.647,1.695c-1.196,0.562-2.439,0.899-3.771,0.944c0,0-0.565,0.019-0.793,0.115
		c-0.38,0.156-1.722,0.125-1.378,0.884c0.332,0.735,2.214,0.325,2.749,0.176c0.479-0.135,0.972-0.232,1.455-0.347
		c1.277-0.302,2.53-0.827,3.685-1.447c1.262-0.677,2.541-1.548,3.361-2.755c0.872-1.282,1.145-3.618-0.735-4.261
		c-1.977-0.658-4.355,0.78-5.925,1.827c-2.006,1.336-3.942,3.025-5.325,5.013C64.725,80.515,64.542,80.743,64.392,80.986z"/>
	<path fill="#ECCDCD" d="M80.112,79.79c-0.091-0.092-0.321-0.092-0.505,0.137c-1.648,2.521-4.582,4.995-7.973,6.369
		c-2.976,1.191-6.503,1.145-5.361-2.704c0.13-0.431,0.312-0.868,0.528-1.307c-0.108-0.02-0.219-0.031-0.316-0.066
		c-0.421-0.147-0.641-0.323-1.116-0.333c-0.458-0.008-0.904,0.091-1.358,0.102c-1.91,5.334,3.701,7.042,8.22,5.227
		c3.206-1.331,6.094-3.85,7.928-6.873C80.341,80.109,80.341,79.881,80.112,79.79z"/>
	<path fill="#ECCDCD" d="M79.191,81.714c-0.46,0.504-0.46-0.55-0.045-1.145c0.665-0.966,1.426-1.865,2.055-2.857
		c0.217-0.34,0.418-0.69,0.611-1.046c0.264-0.493,0.584-0.97,0.881-1.442c0.183-0.285,0.299-0.667,0.533-0.997
		c0.271-0.385,0.92-0.178,1.327-0.076c0.733,0.186,0.686,0.597,0.321,1.331c-1.146,2.519-2.611,6.597-3.163,8.064
		c1.925-2.383,5.91-6.69,8.434-8.66c2.977-2.292,5.083-1.512,3.16,2.292c-0.459,0.87-1.331,2.884-1.741,3.618
		c1.602-1.464,4.263-3.666,6.32-4.445c0.551-0.207,1.27-0.514,1.874-0.39c0.32,0.067,0.513,0.246,0.601,0.56
		c0.134,0.475-0.297,0.884-0.521,1.276c-0.979,1.687-1.783,3.552-2.225,5.453c-0.057,0.248-0.106,0.5-0.139,0.753
		c-0.273,1.97,0.644,3.024,2.109,2.247c1.51-0.826,4.948-3.712,6.827-6.37c0.229-0.32,0.825-0.047,0.595,0.366
		c-0.87,1.604-3.668,4.629-5.957,6.277c-1.512,1.101-4.903,2.199-5.82-0.55c-0.365-1.237,0.141-3.984,0.779-5.591
		c0.323-0.823,0.827-2.061,1.285-2.749c-1.741,0.684-3.218,1.979-4.542,3.265c-0.602,0.586-1.183,1.196-1.756,1.808
		c-0.521,0.551-2.297,2.504-2.71,1.077c-0.207-0.724,0.518-2.067,0.827-2.713c0.548-1.156,1.122-2.303,1.718-3.437
		c0.828-1.466,0.416-2.429-2.928,0.459c-1.982,1.805-3.529,4.107-5.122,6.245c-0.519,0.698-2.738,3.969-3.838,2.616
		c-0.568-0.701,0.309-2.451,0.551-3.151c0.259-0.743,0.515-1.491,0.766-2.237c0.13-0.382,0.264-0.763,0.394-1.145
		c0.11-0.331,0.184-0.801,0.372-1.09C80.428,80.247,79.74,81.164,79.191,81.714z"/>
	<path fill="#ECCDCD" d="M108.49,76.749c0.137-0.315,0.354-0.596,0.483-0.916c0.242-0.592,0.484-1.33,1.009-1.742
		c0.401-0.312,1.324-0.026,1.557,0.429c0.273,0.551-0.232,1.42-0.919,2.841c-1.376,2.749-2.613,5.178-2.752,6.644
		c-0.321,1.97,0.6,3.024,2.111,2.247c1.463-0.826,4.901-3.712,6.83-6.37c0.225-0.32,0.776-0.047,0.543,0.366
		c-0.868,1.604-3.664,4.629-5.955,6.277c-1.465,1.101-4.855,2.199-5.773-0.55c-0.365-1.053,0.413-3.527,1.375-5.634
		c-0.417,0.501-0.827,1.189-1.785,2.289c-0.461,0.504-0.917-0.091-0.506-0.639c0.751-0.925,1.485-1.862,2.193-2.819
		c0.319-0.434,0.637-0.961,1.001-1.353c0.275-0.292,0.364-0.502,0.509-0.884C108.437,76.872,108.411,76.935,108.49,76.749z"/>
	<path fill="#ECCDCD" d="M111.976,72.18c-0.911,0.33-1.936,0.371-1.737-0.484c0.057-0.241,0.194-0.414,0.378-0.573
		c0.34-0.292,0.694-0.57,1.051-0.847c0.333-0.264,1.572-1.513,1.951-0.747c0.287,0.57-0.137,1.379-0.425,1.87
		C113.036,71.674,112.527,71.981,111.976,72.18z"/>
	<path fill="#ECCDCD" d="M117.857,82.906c-0.276,2.244,0.367,4.719,3.024,3.207c1.79-0.963,5.177-4.033,6.738-6.231
		c0.228-0.32,0.776-0.047,0.5,0.459c-0.912,1.602-3.801,4.625-6.092,6.323c-0.917,0.687-1.971,1.006-2.842,1.006
		c-2.749,0-3.574-1.557-3.482-3.666c0.275-4.583,5.82-15.534,8.797-19.475c1.74-2.245,3.804-4.994,6.919-4.994
		c2.064,0,3.575,1.604,1.927,4.582c-3.76,6.553-9.167,11.916-14.892,16.679C118.13,81.714,117.902,82.447,117.857,82.906z
		 M119.14,78.964c4.488-3.069,10.542-10.998,12.969-15.671c1.237-2.245,0.184-3.298-1.836-1.786
		c-2.791,2.154-5.129,5.452-7.098,8.981c-0.504,0.915-1.702,3.251-2.753,5.313C119.919,76.857,119.505,77.956,119.14,78.964z"/>
	<path fill="#ECCDCD" d="M132.517,99.035c-1.693,2.521-4.397,5.589-7.514,5.037c-0.323-0.09-0.688-0.181-0.917-0.318
		c-2.886-1.419-1.51-4.17,0.917-7.011c2.294-2.657,7.057-5.82,10.038-7.791c2.104-4.307,4.765-10.217,5.453-12.324
		c-2.473,2.841-7.01,10.537-11.186,10.537c-4.077,0-3.665-4.122-2.338-6.689c1.01-2.016,2.246-3.527,3.713-4.811
		c2.018-1.925,3.714,0.229,3.12,0.687c-1.054,0.597-2.615,2.108-3.989,3.896c-0.735,0.963-2.518,4.674-1.284,5.544
		c0.829,0.643,2.43,0,3.759-1.282c1.821-1.758,3.459-3.668,5.027-5.65c0.795-1.001,1.577-2.015,2.363-3.02
		c0.755-0.962,1.775-2.977,3.255-2.111c1.172,0.691,0.713,2.162,0.255,3.18c-0.7,1.56-1.389,3.123-2.091,4.682
		c-0.598,1.334-1.198,2.666-1.813,3.994C137.206,90.105,135.188,94.808,132.517,99.035z M126.058,97.477
		c-3.482,3.482-2.295,7.375,1.146,4.627c3.479-2.796,5.041-7.515,6.965-11.41C131.783,92.482,128.439,95.049,126.058,97.477z"/>
	<path fill="#ECCDCD" d="M65.912,80.461c-0.261,0.388-9.157,3.646-9.157,3.646c-0.062,0.026-0.126,0.049-0.193,0.075
		c-4.791,1.84-10.586,2.443-16.434,2.113c-6.416-0.361-11.792-2.113-17.097-3.673c-1.746-0.499-3.497-0.993-5.245-1.489
		c-1.611-0.457-3.133-1.174-4.779-1.533c-2.286-0.498-4.814,0.216-1.035,1.272c6.912,1.93,13.88,3.926,21.357,5.326
		c0.614,0.114,1.208,0.159,1.831,0.246c2.937,0.406,6.051,0.602,9.144,0.584c2.97-0.018,5.939-0.358,8.855-0.915
		c3.319-0.634,6.605-1.543,9.737-2.819c1.301-0.531,2.679-1.095,3.855-1.871C68.319,80.392,66.12,80.154,65.912,80.461z"/>
	<path fill="#ECCDCD" d="M137.671,87.523c1.168-0.819,2.327-1.636,3.509-2.455c1.688-1.165,3.191-2.004,5.194-3.03
		c1.644-0.843,3.355-1.646,5.101-2.404c1.697-0.733,3.416-1.398,5.172-2.041c4.379-1.615,8.954-2.81,13.442-3.679
		c5.131-0.995,10.214-1.599,15.066-1.875c0.773-0.041,2.242-0.107,3.412-0.013c0.814,0.069,1.486,0.22,1.653,0.516
		c-1.814,0.57-4.401,0.574-6.032,0.604c-2.128,0.038-4.373,0.247-6.654,0.58c-1.289,0.191-2.601,0.421-3.909,0.697
		c-5.3,1.097-10.329,2.114-15.593,4.047c-2.679,0.849-5.326,1.844-7.805,3c-6.019,2.81-10.496,6.164-15.234,9.534l-0.451-1.293
		C135.584,88.98,136.634,88.252,137.671,87.523z"/>
</g>
<text transform="matrix(1.01 0 0 1.01 59.4775 153.5049)" fill="#75819A" font-family="'JosefinSans-SemiBold'" font-size="10.5877" letter-spacing="3.96">DESIGNER</text>
<text transform="matrix(1 0 0 1 59.5361 136.0962)" fill="#75819A" font-family="'JosefinSans-SemiBold'" font-size="10.5877" letter-spacing="2">DEVELOPER</text>
<g>
	<polyline fill="none" stroke="#99A8BD" stroke-miterlimit="10" points="184.39,61.812 184.39,17.792 15.867,17.792 15.867,73.531 	
		"/>
	<polyline fill="none" stroke="#99A8BD" stroke-miterlimit="10" points="15.867,96.969 15.867,186.318 184.39,186.318 184.39,85.25 
			"/>
</g>
</svg>
